<?xml version="1.0" encoding="UTF-8" standalone="no"?>
<svg width="41px" height="40px" viewBox="0 0 41 40" version="1.1" xmlns="http://www.w3.org/2000/svg" xmlns:xlink="http://www.w3.org/1999/xlink">
    <!-- Generator: Sketch 46.2 (44496) - http://www.bohemiancoding.com/sketch -->
    <title>GitHub</title>
    <desc>Created with Sketch.</desc>
    <defs></defs>
    <g id="Page-1">
        <g id="Artboard" transform="translate(-130.000000, -777.000000)">
            <g id="Group-3" transform="translate(130.000000, 777.000000)">
                <path d="M20.2378485,0 C9.06224242,0 0,9.1175 0,20.36375 C0,29.35875 5.79839394,36.99125 13.8418485,39.68375 C14.8544242,39.87 15.2234242,39.2425 15.2234242,38.7025 C15.2234242,38.21875 15.2060303,36.93875 15.1960909,35.23875 C9.56666667,36.47 8.37890909,32.51 8.37890909,32.51 C7.45827273,30.1575 6.13136364,29.53125 6.13136364,29.53125 C4.29381818,28.2675 6.27051515,28.29375 6.27051515,28.29375 C8.30187879,28.4375 9.37036364,30.39125 9.37036364,30.39125 C11.1756061,33.50375 14.1064848,32.605 15.260697,32.08375 C15.4445758,30.7675 15.9663939,29.87 16.5453636,29.36125 C12.0515152,28.8475 7.32657576,27.10125 7.32657576,19.2975 C7.32657576,17.075 8.11551515,15.2575 9.41012121,13.83375 C9.20139394,13.31875 8.50687879,11.24875 9.60766667,8.44625 C9.60766667,8.44625 11.307303,7.8975 15.1737273,10.5325 C16.7876364,10.08125 18.5195758,9.855 20.2403333,9.8475 C21.9586061,9.855 23.6905455,10.08125 25.3069394,10.5325 C29.1708788,7.8975 30.8667879,8.44625 30.8667879,8.44625 C31.971303,11.24875 31.2767879,13.31875 31.0680606,13.83375 C32.3651515,15.2575 33.1491212,17.075 33.1491212,19.2975 C33.1491212,27.12 28.4167273,28.84125 23.9079697,29.34625 C24.6347879,29.97375 25.2820909,31.2175 25.2820909,33.11625 C25.2820909,35.83875 25.2572424,38.035 25.2572424,38.7025 C25.2572424,39.24625 25.6212727,39.88 26.6487576,39.68125 C34.6835152,36.98375 40.4781818,29.35625 40.4781818,20.36375 C40.4781818,9.1175 31.4159394,0 20.2378485,0" id="GitHub"></path>
            </g>
        </g>
    </g>
</svg>