<?xml version="1.0" encoding="UTF-8" standalone="no"?>
<svg width="940px" height="831px" viewBox="0 0 940 831" version="1.1" xmlns="http://www.w3.org/2000/svg" xmlns:xlink="http://www.w3.org/1999/xlink">
    <!-- Generator: Sketch 46.2 (44496) - http://www.bohemiancoding.com/sketch -->
    <title>Group 7</title>
    <desc>Created with Sketch.</desc>
    <defs></defs>
    <g id="Page-1" stroke="none" stroke-width="1" fill="none" fill-rule="evenodd">
        <g id="Artboard" transform="translate(-230.000000, -60.000000)">
            <g id="Background">
                <g id="Group-7" transform="translate(230.000000, 60.000000)">
                    <g id="Page-1" opacity="0.100000001" transform="translate(0.000000, 9.000000)">
                        <path d="M801.9883,425.2922 C594.4213,555.8242 930.9883,801.3192 569.9883,821.2922 C325.1633,834.8382 335.6873,534.8142 60.0153,375.2922 C-154.0097,251.4432 256.9883,148.2922 485.9883,19.2922 C648.6553,-72.3408 1189.9883,181.2922 801.9883,425.2922 Z" id="Stroke-1" stroke="#282E31" stroke-width="0.25"></path>
                        <path d="M804.6075,422.2453 C599.9945,553.4793 921.4175,797.6043 568.2265,820.2453 C326.0055,836.6383 334.8485,524.2133 63.0625,375.2453 C-147.9145,259.5793 246.3955,144.4793 484.7975,19.9113 C649.9755,-66.3967 1179.8825,181.5513 804.6075,422.2453 Z" id="Stroke-3" stroke="#26373B" stroke-width="0.262"></path>
                        <path d="M807.2266,419.1975 C605.5726,551.1675 911.7546,792.6825 566.4646,819.1975 C326.7826,837.6015 334.0106,513.6115 66.1086,375.1975 C-141.8194,267.7145 235.6286,140.5665 483.6076,20.5305 C651.1616,-60.5745 1169.8166,181.9045 807.2266,419.1975 Z" id="Stroke-5" stroke="#244145" stroke-width="0.274"></path>
                        <path d="M809.8458,416.1496 C611.1568,548.8896 902.1258,788.4446 564.7028,818.1496 C327.5808,839.0246 333.1728,503.0096 69.1548,375.1496 C-135.7242,275.8496 224.7038,136.5366 482.4168,21.1496 C652.2288,-54.8804 1159.7928,182.3556 809.8458,416.1496 Z" id="Stroke-7" stroke="#224A4E" stroke-width="0.286"></path>
                        <path d="M812.4649,413.1018 C616.7509,546.6498 892.4909,784.2618 562.9409,817.1018 C328.3719,840.4768 332.3349,492.4088 72.2009,375.1018 C-129.6291,283.9858 213.6389,132.3718 481.2269,21.7688 C653.1929,-49.3112 1149.8149,182.9068 812.4649,413.1018 Z" id="Stroke-9" stroke="#205458" stroke-width="0.298"></path>
                        <path d="M815.084,410.0549 C622.356,544.4499 882.851,780.1369 561.179,816.0549 C329.158,841.9619 331.496,481.8069 75.247,375.0549 C-123.534,292.1209 202.45,128.0639 480.036,22.3879 C654.069,-43.8661 1139.885,183.5589 815.084,410.0549 Z" id="Stroke-11" stroke="#1E5D62" stroke-width="0.31"></path>
                        <path d="M817.7022,407.007 C627.9772,542.292 873.2072,776.071 559.4172,815.007 C329.9392,843.481 330.6582,471.205 78.2932,375.007 C-117.4388,300.257 191.1542,123.598 478.8452,23.007 C654.8732,-38.541 1130.0072,184.315 817.7022,407.007 Z" id="Stroke-13" stroke="#1D666C" stroke-width="0.321"></path>
                        <path d="M820.3214,403.9592 C633.6174,540.1812 863.5614,772.0662 557.6544,813.9592 C330.7184,845.0372 329.8204,460.6042 81.3404,374.9592 C-111.3436,308.3932 179.7674,118.9682 477.6544,23.6262 C655.6164,-33.3328 1120.1844,185.1762 820.3214,403.9592 Z" id="Stroke-15" stroke="#1B7076" stroke-width="0.333"></path>
                        <path d="M822.9405,400.9113 C639.2795,538.1183 853.9165,768.1263 555.8935,812.9113 C331.4955,846.6333 328.9825,450.0023 84.3865,374.9113 C-105.2485,316.5283 168.3055,114.1683 476.4645,24.2453 C656.3125,-28.2357 1110.4225,186.1423 822.9405,400.9113 Z" id="Stroke-17" stroke="#19797F" stroke-width="0.345"></path>
                        <path d="M825.5596,397.8635 C644.9696,536.1095 844.2736,764.2515 554.1316,811.8635 C332.2726,848.2715 328.1436,439.4005 87.4326,374.8635 C-99.1534,324.6645 156.7846,109.1935 475.2736,24.8635 C656.9726,-23.2455 1100.7256,187.2175 825.5596,397.8635 Z" id="Stroke-19" stroke="#178289" stroke-width="0.357"></path>
                        <path d="M828.1788,394.8166 C650.6938,534.1586 834.6348,760.4426 552.3688,810.8166 C333.0528,849.9566 327.3048,428.7986 90.4788,374.8166 C-93.0582,332.7996 145.2168,104.0416 474.0838,25.4826 C657.6068,-18.3564 1091.0968,188.4016 828.1788,394.8166 Z" id="Stroke-21" stroke="#158C93" stroke-width="0.369"></path>
                        <path d="M830.7979,391.7687 C656.4579,532.2687 825.0049,756.7027 550.6079,809.7687 C333.8379,851.6897 326.4669,418.1977 93.5249,374.7687 C-86.9631,340.9357 133.6159,98.7117 472.8929,26.1017 C658.2239,-13.5613 1081.5419,189.6947 830.7979,391.7687 Z" id="Stroke-23" stroke="#13959D" stroke-width="0.381"></path>
                        <path d="M833.4171,388.7209 C662.2711,530.4479 815.3851,753.0329 548.8451,808.7209 C334.6311,853.4769 325.6291,407.5959 96.5711,374.7209 C-80.8679,349.0719 121.9941,93.2059 471.7031,26.7209 C658.8301,-8.8551 1072.0661,191.0959 833.4171,388.7209 Z" id="Stroke-25" stroke="#119FA7" stroke-width="0.393"></path>
                        <path d="M836.0362,385.673 C668.1402,528.698 805.7792,749.435 547.0832,807.673 C335.4352,855.32 324.7912,396.994 99.6182,374.673 C-74.7728,357.207 110.3632,87.526 470.5122,27.34 C659.4352,-4.231 1062.6762,192.606 836.0362,385.673 Z" id="Stroke-27" stroke="#0FA8B1" stroke-width="0.405"></path>
                        <path d="M838.6553,382.6262 C674.0773,527.0292 796.1913,745.9102 545.3223,806.6262 C336.2553,857.2252 323.9523,386.3932 102.6643,374.6262 C-68.6777,365.3432 98.7323,81.6722 469.3223,27.9592 C660.0453,0.3152 1053.3783,194.2242 838.6553,382.6262 Z" id="Stroke-29" stroke="#0DB1BA" stroke-width="0.417"></path>
                        <path d="M841.2745,379.5783 C680.0955,525.4483 786.6265,742.4583 543.5595,805.5783 C337.0935,859.1933 323.1145,375.7913 105.7105,374.5783 C-62.5825,373.4783 87.1115,75.6503 468.1315,28.5783 C660.6625,4.7923 1044.1775,195.9463 841.2745,379.5783 Z" id="Stroke-31" stroke="#0BBBC4" stroke-width="0.429"></path>
                        <path d="M843.8926,376.5305 C686.2086,523.9615 777.0866,739.0805 541.7976,804.5305 C337.9556,861.2335 322.2766,365.1895 108.7566,374.5305 C-56.4874,381.6145 75.5076,69.4665 466.9406,29.1975 C661.2936,9.2035 1035.0836,197.7715 843.8926,376.5305 Z" id="Stroke-33" stroke="#0AC4CE" stroke-width="0.44"></path>
                        <path d="M846.5118,373.4826 C692.4378,522.5776 767.5798,735.7766 540.0358,803.4826 C338.8488,863.3466 321.4388,354.5876 111.8038,374.4826 C-50.3922,389.7506 63.9298,63.1236 465.7498,29.8166 C661.9438,13.5536 1026.1048,199.6956 846.5118,373.4826 Z" id="Stroke-35" stroke="#08CDD8" stroke-width="0.452"></path>
                        <path d="M849.1309,370.4357 C698.8009,521.3077 758.1099,732.5467 538.2739,802.4357 C339.7769,865.5397 320.5999,343.9867 114.8489,374.4357 C-44.2971,397.8847 52.3839,56.6277 464.5599,30.4357 C662.6139,17.8497 1017.2489,201.7107 849.1309,370.4357 Z" id="Stroke-37" stroke="#06D7E2" stroke-width="0.464"></path>
                        <path d="M851.7501,367.3879 C705.3251,520.1619 748.6841,729.3909 536.5121,801.3879 C340.7481,867.8169 319.7621,333.3849 117.8961,374.3879 C-38.2019,406.0209 40.8751,49.9869 463.3691,31.0549 C663.3081,22.0949 1008.5271,203.8129 851.7501,367.3879 Z" id="Stroke-39" stroke="#04E0EB" stroke-width="0.476"></path>
                        <path d="M854.3692,364.34 C712.0422,519.153 739.3072,726.307 534.7502,800.34 C341.7712,870.183 318.9242,322.782 120.9422,374.34 C-32.1068,414.156 29.4092,43.206 462.1792,31.673 C664.0262,26.294 999.9502,205.987 854.3692,364.34 Z" id="Stroke-41" stroke="#02EAF5" stroke-width="0.488"></path>
                        <path d="M856.9883,361.2922 C718.9883,518.2922 729.9883,723.2922 532.9883,799.2922 C342.8533,872.6442 318.0863,312.1812 123.9883,374.2922 C-26.0117,422.2922 17.9883,36.2922 460.9883,32.2922 C664.7733,30.4522 991.5313,208.2252 856.9883,361.2922 Z" id="Stroke-43" stroke="#00F3FF" stroke-width="0.5"></path>
                    </g>
                    <g id="Page-1" opacity="0.200000003" transform="translate(500.000000, 390.000000) scale(-1, -1) translate(-500.000000, -390.000000) translate(98.000000, 0.000000)" stroke-width="0.5">
                        <path d="M800.8464,397.6259 C774.0264,601.8749 634.8464,713.6259 427.8464,770.6259 C229.2364,825.3159 221.8034,604.9319 54.8464,397.6259 C-65.1536,248.6259 299.0044,-116.3611 491.8464,45.6259 C666.8464,192.6259 826.8464,199.6259 800.8464,397.6259 Z" id="Stroke-1" stroke="#00FFAA"></path>
                        <path d="M798.5309,397.3632 C775.3849,601.0192 631.4599,722.3732 426.3199,769.5732 C227.2659,815.3742 211.3069,604.9032 54.1099,397.3632 C-60.2841,246.3342 295.3019,-100.0308 486.9519,45.0472 C660.6879,176.5652 820.8989,199.6272 798.5309,397.3632 Z" id="Stroke-3" stroke="#00FEAE"></path>
                        <path d="M796.2145,397.0995 C776.7435,600.1645 627.9525,731.0225 424.7935,768.5215 C225.1725,805.3675 200.8635,604.7515 53.3725,397.0995 C-55.3995,243.9585 291.5205,-83.7385 482.0565,44.4685 C654.4605,160.4735 814.9515,199.6275 796.2145,397.0995 Z" id="Stroke-5" stroke="#00FEB3"></path>
                        <path d="M793.8991,396.8368 C778.1031,599.3098 624.3351,739.5558 423.2671,767.4688 C222.9641,795.2738 190.4851,604.4778 52.6361,396.8368 C-50.4889,241.5008 287.6411,-67.4752 477.1621,43.8898 C648.1461,144.3608 809.0041,199.6288 793.8991,396.8368 Z" id="Stroke-7" stroke="#00FDB7"></path>
                        <path d="M791.5837,396.5732 C779.4617,598.4542 620.6167,747.9572 421.7407,766.4162 C220.6517,785.0792 180.1837,604.0802 51.8987,396.5732 C-45.5423,238.9582 283.6447,-51.2268 472.2677,43.3102 C641.7297,128.2442 803.0577,199.6292 791.5837,396.5732 Z" id="Stroke-9" stroke="#00FCBC"></path>
                        <path d="M789.2673,396.3105 C780.8213,597.5985 616.8143,756.2135 420.2153,765.3635 C218.2493,774.7625 169.9723,603.5645 51.1623,396.3105 C-40.5477,236.3315 279.5193,-34.9655 467.3723,42.7315 C635.1983,112.1455 797.1103,199.6295 789.2673,396.3105 Z" id="Stroke-11" stroke="#00FCC0"></path>
                        <path d="M786.9518,396.0468 C782.1798,596.7438 612.9448,764.3138 418.6888,764.3108 C215.7748,764.3078 159.8628,602.9348 50.4258,396.0468 C-35.4922,233.6228 275.2538,-18.6632 462.4778,42.1518 C628.5428,96.0948 791.1628,199.6308 786.9518,396.0468 Z" id="Stroke-13" stroke="#00FBC5"></path>
                        <path d="M784.6354,395.7841 C783.5384,595.8891 609.0294,772.2501 417.1624,763.2581 C213.2484,753.7011 149.8664,602.1981 49.6884,395.7841 C-30.3646,230.8371 270.8494,-2.2769 457.5834,41.5731 C621.7644,80.1281 785.2154,199.6321 784.6354,395.7841 Z" id="Stroke-15" stroke="#00FBC9"></path>
                        <path d="M782.32,395.5214 C784.897,595.0334 605.089,780.0224 415.636,762.2054 C210.694,742.9314 139.994,601.3664 48.952,395.5214 C-25.15,227.9794 266.321,14.2374 452.689,40.9954 C614.879,64.2814 779.268,199.6314 782.32,395.5214 Z" id="Stroke-17" stroke="#00FACE"></path>
                        <path d="M780.0046,395.2577 C786.2566,594.1787 601.1456,787.6307 414.1096,761.1527 C208.1356,731.9927 130.2556,600.4497 48.2146,395.2577 C-19.8354,225.0567 261.7016,30.9187 447.7936,40.4157 C607.9126,48.5867 773.3216,199.6327 780.0046,395.2577 Z" id="Stroke-19" stroke="#00F9D2"></path>
                        <path d="M777.6882,394.995 C787.6162,593.323 597.2202,795.082 412.5832,760.099 C205.5972,720.883 120.6582,599.464 47.4782,394.995 C-14.4098,222.077 257.0392,47.799 442.8992,39.837 C600.9102,33.068 767.3752,199.634 777.6882,394.995 Z" id="Stroke-21" stroke="#00F9D7"></path>
                        <path d="M775.3727,394.7314 C788.9747,592.4674 593.3347,802.3864 411.0567,759.0464 C203.1047,709.6034 111.2077,598.4234 46.7407,394.7314 C-8.8593,219.0524 252.3897,64.8884 438.0037,39.2574 C593.9187,17.7274 761.4277,199.6344 775.3727,394.7314 Z" id="Stroke-23" stroke="#00F8DB"></path>
                        <path d="M773.0573,394.4687 C790.3333,591.6127 589.5073,809.5567 409.5303,757.9947 C200.6793,698.1597 101.9093,597.3467 46.0043,394.4687 C-3.1757,215.9937 247.8123,82.1817 433.1093,38.6787 C586.9883,2.5527 755.4803,199.6347 773.0573,394.4687 Z" id="Stroke-25" stroke="#00F7E0"></path>
                        <path d="M770.7409,394.205 C791.6919,590.758 585.7529,816.608 408.0039,756.942 C198.3409,686.562 92.7619,596.252 45.2669,394.205 C2.6529,212.917 243.3559,99.646 428.2149,38.1 C580.1569,-12.487 749.5329,199.636 770.7409,394.205 Z" id="Stroke-27" stroke="#00F7E4"></path>
                        <path d="M768.4255,393.9423 C793.0515,589.9023 582.0845,823.5573 406.4775,755.8893 C196.1075,674.8253 83.7655,595.1573 44.5305,393.9423 C8.6315,209.8353 239.0535,117.2403 423.3205,37.5213 C573.4525,-27.4317 743.5855,199.6363 768.4255,393.9423 Z" id="Stroke-29" stroke="#00F6E9"></path>
                        <path d="M766.1091,393.6786 C794.4111,589.0466 578.5121,830.4226 404.9521,754.8366 C193.9911,662.9626 74.9181,594.0816 43.7941,393.6786 C14.7651,206.7636 234.9201,134.9146 418.4251,36.9426 C566.8851,-42.3204 737.6381,199.6376 766.1091,393.6786 Z" id="Stroke-31" stroke="#00F6ED"></path>
                        <path d="M763.7936,393.4159 C795.7696,588.1909 575.0416,837.2219 403.4256,753.7839 C192.0036,650.9939 66.2106,593.0459 43.0566,393.4159 C21.0556,203.7199 230.9496,152.6239 413.5306,36.3629 C560.4526,-57.1911 731.6906,199.6379 763.7936,393.4159 Z" id="Stroke-33" stroke="#00F5F2"></path>
                        <path d="M761.4782,393.1523 C797.1282,587.3373 571.6762,843.9703 401.8992,752.7313 C190.1492,638.9353 57.6372,592.0663 42.3202,393.1523 C27.5022,200.7183 227.1292,170.3293 408.6362,35.7843 C554.1412,-72.0747 725.7442,199.6383 761.4782,393.1523 Z" id="Stroke-35" stroke="#00F4F6"></path>
                        <path d="M759.1618,392.8896 C798.4868,586.4816 568.4178,850.6876 400.3728,751.6786 C188.4308,626.8076 49.1858,591.1606 41.5828,392.8896 C34.1018,197.7766 223.4358,188.0016 403.7408,35.2046 C547.9338,-86.9894 719.7968,199.6396 759.1618,392.8896 Z" id="Stroke-37" stroke="#00F4FB"></path>
                        <path d="M756.8464,392.6259 C799.8464,585.6259 565.2644,857.3849 398.8464,750.6259 C186.8464,614.6259 40.8464,590.3439 40.8464,392.6259 C40.8464,194.9079 219.8464,205.6259 398.8464,34.6259 C541.8124,-101.9501 713.8494,199.6409 756.8464,392.6259 Z" id="Stroke-39" stroke="#00F3FF"></path>
                        <path d="M756.8464,392.6259 C799.8464,585.6259 565.2644,857.3849 398.8464,750.6259 C186.8464,614.6259 40.8464,590.3439 40.8464,392.6259 C40.8464,194.9079 219.8464,205.6259 398.8464,34.6259 C541.8124,-101.9501 713.8494,199.6409 756.8464,392.6259 Z" id="Stroke-41" stroke="#00F3FF"></path>
                        <path d="M756.7038,393.1503 C803.8678,590.6023 567.5168,856.9313 397.1798,745.1023 C191.0288,609.7603 32.8078,596.6813 41.4658,393.1503 C50.0118,192.2573 216.2788,196.6233 405.9418,36.5313 C556.8028,-90.8087 710.8828,201.3213 756.7038,393.1503 Z" id="Stroke-43" stroke="#00F4FB"></path>
                        <path d="M756.5602,393.6737 C807.9602,595.5847 569.7562,856.5417 395.5132,739.5787 C195.1232,605.0637 24.6642,603.0727 42.0842,393.6737 C59.0572,189.6557 212.6162,187.6157 413.0372,38.4357 C571.7142,-79.6753 708.0202,202.9947 756.5602,393.6737 Z" id="Stroke-45" stroke="#00F4F7"></path>
                        <path d="M756.4177,394.1972 C812.1247,600.5672 571.9797,856.2172 393.8467,734.0542 C199.1327,600.5212 16.4177,609.5022 42.7037,394.1972 C67.9887,187.0862 208.8627,178.5892 420.1317,40.3412 C586.5547,-68.5608 705.2547,204.6602 756.4177,394.1972 Z" id="Stroke-47" stroke="#00F5F3"></path>
                        <path d="M756.2751,394.7216 C816.3601,605.5456 574.1771,855.9576 392.1801,728.5316 C203.0621,596.1176 8.0721,615.9526 43.3221,394.7216 C76.8131,184.5346 205.0241,169.5246 427.2271,42.2446 C601.3271,-57.4794 702.5781,206.3126 756.2751,394.7216 Z" id="Stroke-49" stroke="#00F5EF"></path>
                        <path d="M756.1325,395.245 C820.6675,610.517 576.3455,855.768 390.5125,723.007 C206.9165,591.844 -0.3695,622.412 43.9415,395.245 C85.5395,181.989 201.1125,160.41 434.3225,44.15 C616.0405,-46.441 699.9845,207.951 756.1325,395.245 Z" id="Stroke-51" stroke="#00F6EB"></path>
                        <path d="M755.989,395.7695 C825.046,615.4775 578.479,855.6495 388.846,717.4835 C210.7,587.6855 -8.902,628.8715 44.561,395.7695 C94.176,179.4415 197.14,151.2365 441.418,46.0545 C630.706,-35.4495 697.467,209.5755 755.989,395.7695 Z" id="Stroke-53" stroke="#00F6E7"></path>
                        <path d="M755.8464,396.2929 C829.4944,620.4219 580.5714,855.6049 387.1794,711.9599 C214.4144,583.6349 -17.5176,635.3199 45.1794,396.2929 C102.7314,176.8839 193.1194,141.9969 448.5124,47.9599 C645.3334,-24.5111 695.0194,211.1819 755.8464,396.2929 Z" id="Stroke-55" stroke="#00F7E3"></path>
                        <path d="M755.7038,396.8163 C834.0148,625.3483 582.6148,855.6383 385.5128,706.4353 C218.0648,579.6803 -26.2122,641.7523 45.7988,396.8163 C111.2148,174.3103 189.0648,132.6873 455.6078,49.8643 C659.9348,-13.6257 692.6368,212.7713 755.7038,396.8163 Z" id="Stroke-57" stroke="#00F8DF"></path>
                        <path d="M755.5602,397.3407 C838.6042,630.2537 584.6052,855.7527 383.8462,700.9117 C221.6522,575.8147 -34.9758,648.1617 46.4172,397.3407 C119.6342,171.7177 184.9872,123.3097 462.7032,51.7697 C674.5202,-2.7953 690.3142,214.3427 755.5602,397.3407 Z" id="Stroke-59" stroke="#00F8DB"></path>
                        <path d="M755.4177,397.8642 C843.2627,635.1352 586.5327,855.9532 382.1797,695.3882 C225.1817,572.0302 -43.8043,654.5462 47.0367,397.8642 C127.9977,169.1012 180.8997,113.8632 469.7987,53.6742 C689.0967,7.9852 688.0477,215.8942 755.4177,397.8642 Z" id="Stroke-61" stroke="#00F9D7"></path>
                        <path d="M755.2751,398.3886 C847.9891,639.9896 588.3911,856.2436 380.5131,689.8646 C228.6531,568.3206 -52.6909,660.9006 47.6561,398.3886 C136.3121,166.4596 176.8111,104.3536 476.8941,55.5786 C703.6711,18.7186 685.8311,217.4266 755.2751,398.3886 Z" id="Stroke-63" stroke="#00F9D2"></path>
                        <path d="M755.1325,398.912 C852.7835,644.814 590.1715,856.631 378.8465,684.341 C232.0705,564.677 -61.6295,667.225 48.2755,398.912 C144.5825,163.793 172.7275,94.786 483.9895,57.483 C718.2525,29.408 683.6615,218.938 755.1325,398.912 Z" id="Stroke-65" stroke="#00FACE"></path>
                        <path d="M754.989,399.4355 C857.646,649.6095 591.865,857.1195 377.18,678.8165 C235.435,561.0945 -70.615,673.5175 48.894,399.4355 C152.817,161.0985 168.657,85.1655 491.085,59.3885 C732.843,40.0595 681.535,220.4295 754.989,399.4355 Z" id="Stroke-67" stroke="#00FACA"></path>
                        <path d="M754.8464,399.9599 C862.5744,654.3699 593.4624,857.7149 375.5124,673.2929 C238.7494,557.5669 -79.6416,679.7779 49.5134,399.9599 C161.0184,158.3779 164.6034,75.4979 498.1794,61.2929 C747.4474,50.6779 679.4494,221.8989 754.8464,399.9599 Z" id="Stroke-69" stroke="#00FBC6"></path>
                        <path d="M754.7038,400.4833 C867.5678,659.0953 594.9518,858.4263 373.8468,667.7693 C242.0138,554.0893 -88.7042,686.0063 50.1318,400.4833 C169.1928,155.6303 160.5698,65.7903 505.2748,63.1973 C762.0648,61.2663 677.3978,223.3483 754.7038,400.4833 Z" id="Stroke-71" stroke="#00FCC2"></path>
                        <path d="M754.5602,401.0068 C872.6252,663.7848 596.3222,859.2618 372.1802,662.2448 C245.2282,550.6578 -97.7998,692.2038 50.7512,401.0068 C177.3432,152.8568 156.5582,56.0458 512.3702,65.1028 C776.7022,71.8298 675.3802,224.7768 754.5602,401.0068 Z" id="Stroke-73" stroke="#00FCBE"></path>
                        <path d="M754.4177,401.5312 C877.7467,668.4352 597.5587,860.2282 370.5127,656.7212 C248.3967,547.2652 -106.9243,698.3692 51.3707,401.5312 C185.4727,150.0572 152.5697,46.2722 519.4657,67.0072 C791.3557,82.3732 673.3947,226.1822 754.4177,401.5312 Z" id="Stroke-75" stroke="#00FDBA"></path>
                        <path d="M754.2751,402.0546 C882.9301,673.0466 598.6471,861.3376 368.8461,651.1976 C251.5181,543.9086 -116.0729,704.5046 51.9891,402.0546 C193.5861,147.2336 148.6051,36.4726 526.5611,68.9116 C806.0261,92.8986 671.4351,227.5676 754.2751,402.0546 Z" id="Stroke-77" stroke="#00FDB6"></path>
                        <path d="M754.1325,402.579 C888.1765,677.616 599.5705,862.599 367.1795,645.674 C254.5925,540.58 -125.2445,710.611 52.6085,402.579 C201.6845,144.387 144.7515,25.88 533.6555,70.816 C820.7785,102.84 669.5015,228.931 754.1325,402.579 Z" id="Stroke-79" stroke="#00FEB2"></path>
                        <path d="M753.989,403.1025 C893.481,682.1425 600.311,864.0245 365.513,640.1505 C257.622,537.2785 -134.858,716.4355 53.227,403.1025 C209.418,141.3065 140.799,16.4195 540.751,72.7215 C835.462,113.6185 667.592,230.2725 753.989,403.1025 Z" id="Stroke-81" stroke="#00FEAE"></path>
                        <path d="M753.8464,403.6259 C898.8464,686.6259 600.8464,865.6259 363.8464,634.6259 C260.6044,533.9979 -143.6436,722.7399 53.8464,403.6259 C217.8464,138.6259 136.8464,6.9599 547.8464,74.6259 C850.1444,124.3969 665.7014,231.5929 753.8464,403.6259 Z" id="Stroke-83" stroke="#00FFAA"></path>
                    </g>
                </g>
            </g>
        </g>
    </g>
</svg>