<?xml version="1.0" encoding="UTF-8" standalone="no"?>
<svg width="40px" height="40px" viewBox="0 0 40 40" version="1.1" xmlns="http://www.w3.org/2000/svg" xmlns:xlink="http://www.w3.org/1999/xlink">
    <!-- Generator: Sketch 46.2 (44496) - http://www.bohemiancoding.com/sketch -->
    <title>Fill 1</title>
    <desc>Created with Sketch.</desc>
    <defs></defs>
    <g id="Page-1" stroke="none" stroke-width="1"  fill-rule="evenodd">
        <g id="Artboard" transform="translate(-496.000000, -777.000000)" >
            <g id="Group-5" transform="translate(496.000000, 777.000000)">
                <g id="Page-1">
                    <path d="M34.0853333,34.0842222 L28.1531111,34.0842222 L28.1531111,24.802 C28.1531111,22.5875556 28.1153333,19.7397778 25.0708889,19.7397778 C21.9831111,19.7397778 21.5131111,22.1531111 21.5131111,24.6431111 L21.5131111,34.0842222 L15.5875556,34.0842222 L15.5875556,14.9953333 L21.2742222,14.9953333 L21.2742222,17.6053333 L21.3553333,17.6053333 C22.1464444,16.1042222 24.082,14.522 26.9686667,14.522 C32.9753333,14.522 34.0853333,18.4742222 34.0853333,23.6153333 L34.0853333,34.0842222 Z M8.89755556,12.3875556 C6.992,12.3875556 5.45533333,10.8464444 5.45533333,8.94644444 C5.45533333,7.04755556 6.992,5.50644444 8.89755556,5.50644444 C10.7953333,5.50644444 12.3364444,7.04755556 12.3364444,8.94644444 C12.3364444,10.8464444 10.7953333,12.3875556 8.89755556,12.3875556 L8.89755556,12.3875556 Z M5.92644444,34.0842222 L11.8653333,34.0842222 L11.8653333,14.9953333 L5.92644444,14.9953333 L5.92644444,34.0842222 Z M37.0397778,-0.000222222222 L2.95088889,-0.000222222222 C1.32311111,-0.000222222222 -0.000222222222,1.29088889 -0.000222222222,2.88422222 L-0.000222222222,37.1142222 C-0.000222222222,38.7064444 1.32311111,39.9997778 2.95088889,39.9997778 L37.0397778,39.9997778 C38.6708889,39.9997778 39.9986667,38.7064444 39.9986667,37.1142222 L39.9986667,2.88422222 C39.9986667,1.29088889 38.6708889,-0.000222222222 37.0397778,-0.000222222222 L37.0397778,-0.000222222222 Z" id="Fill-1"></path>
                </g>
            </g>
        </g>
    </g>
</svg>