<?xml version="1.0" encoding="UTF-8"?>
<svg width="50px" height="30px" viewBox="0 0 50 30" version="1.1" xmlns="http://www.w3.org/2000/svg" xmlns:xlink="http://www.w3.org/1999/xlink">
    <!-- Generator: Sketch 46.2 (44496) - http://www.bohemiancoding.com/sketch -->
    <title>Fill 1</title>
    <desc>Created with Sketch.</desc>
    <defs></defs>
    <g id="Page-1" stroke="none" stroke-width="1"  fill-rule="evenodd">
        <g id="Artboard" transform="translate(-323.000000, -782.000000)" >
            <g id="Group-4" transform="translate(323.000000, 782.000000)">
                <path d="M0,3.69564849 L0,26.1553097 C4.89829577,22.5008608 9.7707328,18.8657806 14.6716755,15.2095262 C9.76788223,11.361226 4.90297884,7.54329207 0,3.69564849 M49.8735569,26.4302469 C49.9157046,26.4197418 49.9578523,26.4092368 50,26.3987317 L50,3.42711281 C45.1338749,7.35009739 40.3184493,11.2322107 35.4508989,15.1561801 C40.2429092,18.9020559 45.0581312,22.6661514 49.8735569,26.4302469 M0.941095026,28.2983426 C2.046505,29.4289501 3.4102987,30.0009836 5.14772056,29.9999987 C14.3581129,29.9949103 23.5687089,29.9975366 32.7791013,29.9975366 C36.7990145,29.9975366 40.8191314,29.9942538 44.8392483,29.999178 C46.4542993,30.0011477 47.8185002,29.5627255 48.914544,28.5378252 C43.7918677,24.5629719 38.6750962,20.5928787 33.5383707,16.6073561 C33.3803677,16.7278361 33.2447621,16.8268135 33.1158756,16.9310434 C31.6891658,18.0820044 30.2137927,19.1970184 28.8491845,20.3944315 C26.9132409,22.0937896 23.4622198,22.20557 21.3159449,20.4259467 C20.559526,19.7985974 19.7668642,19.1996447 18.9888624,18.5893661 C18.1772647,17.9529891 17.3634272,17.3185818 16.5267852,16.6648057 C11.3222568,20.5495453 6.14827032,24.4114692 0.941095026,28.2983426 M48.8795227,1.40341085 C47.7521227,0.400669731 46.4202961,-0.000164091224 44.8695865,5.03896951e-08 C31.6574023,0.00164146653 18.4452182,0.00114904169 5.23303402,0.000492475232 C4.02744691,0.000492475232 2.91429968,0.241780648 1.95732291,0.847791488 C1.61036793,1.06774125 1.31614847,1.3416936 1.00054975,1.58889088 C1.1058172,1.68622685 1.13656262,1.71889103 1.17239835,1.74712339 C8.47555637,7.47960512 15.776271,13.2137283 23.0849266,18.9417782 C24.3680899,19.9474739 25.8059984,19.924494 27.0647283,18.9107554 C34.1923727,13.1710515 41.3192027,7.43069092 48.4476615,1.69180767 C48.5673854,1.59562068 48.7086922,1.51666857 48.8795227,1.40341085" id="Fill-1"></path>
            </g>
        </g>
    </g>
</svg>