<?xml version="1.0" encoding="UTF-8" standalone="no"?>
<svg width="40px" height="40px" viewBox="0 0 40 40" version="1.1" xmlns="http://www.w3.org/2000/svg" xmlns:xlink="http://www.w3.org/1999/xlink">
    <!-- Generator: Sketch 46.2 (44496) - http://www.bohemiancoding.com/sketch -->
    <title>Combined Shape</title>
    <desc>Created with Sketch.</desc>
    <defs></defs>
    <g id="Page-1" stroke="none" stroke-width="1" fill-rule="evenodd">
        <g id="Artboard" transform="translate(-705.000000, -777.000000)">
            <g id="Group-6" transform="translate(705.000000, 777.000000)">
                <path d="M3,0 L37,0 C38.6568542,-3.04359188e-16 40,1.34314575 40,3 L40,37 C40,38.6568542 38.6568542,40 37,40 L3,40 C1.34314575,40 2.02906125e-16,38.6568542 0,37 L0,3 L0,3 C-2.02906125e-16,1.34314575 1.34314575,3.04359188e-16 3,0 L3,0 Z M9.36093258,11.000155 C9.0964696,11.000155 8.87390632,11.091084 8.76162533,11.2689232 C8.6458466,11.4524148 8.66337184,11.6889852 8.78691384,11.9283698 L11.7580032,16.9609214 C11.7630365,16.9704615 11.7630365,16.9765791 11.7580032,16.9853679 L7.08907364,25.0473387 C6.96735973,25.2846484 6.97329491,25.5229956 7.08907364,25.7069404 C7.2011962,25.8838852 7.39878783,26 7.6635555,26 L12.0576507,26 C12.7145548,26 13.0315692,25.5662241 13.256119,25.1697142 C13.256119,25.1697142 17.8222126,17.2678499 18,16.9610645 C17.9820238,16.9327424 14.9790893,11.8064356 14.9790893,11.8064356 C14.7598775,11.4252852 14.4297497,11 13.7557956,11 L9.36093258,11 L9.36093258,11.000155 Z M27.9122911,5.000456 C27.2584068,5.000456 26.975101,5.407556 26.7403422,5.824556 C26.7403422,5.824556 17.310778,22.354556 17,22.897256 C17.0159395,22.926656 23.2192027,34.175912 23.2192027,34.175912 C23.4365167,34.5596 23.77172,35 24.4422843,35 L28.814118,35 C29.0778544,35 29.2839269,34.901912 29.395018,34.723556 C29.5118632,34.539056 29.5085126,34.295 29.3860467,34.054856 L23.2154151,22.9106 C23.2094788,22.902056 23.2094788,22.8908 23.2154151,22.882256 L32.9064335,5.944256 C33.0282803,5.705156 33.0308661,5.461256 32.915684,5.276456 C32.803986,5.098256 32.5973186,5 32.3335821,5 L27.9118298,5 L27.9118298,5.0003 L27.9122789,5.0003 L27.9122911,5.000456 Z" id="Combined-Shape"></path>
            </g>
        </g>
    </g>
</svg>