<?xml version="1.0" encoding="UTF-8" standalone="no"?>
<svg width="1440px" height="900px" viewBox="0 0 1440 900" version="1.1" xmlns="http://www.w3.org/2000/svg" xmlns:xlink="http://www.w3.org/1999/xlink">
    <!-- Generator: Sketch 46.2 (44496) - http://www.bohemiancoding.com/sketch -->
    <title>Group 2</title>
    <desc>Created with Sketch.</desc>
    <defs>
        <radialGradient cx="50%" cy="0%" fx="50%" fy="0%" r="100%" gradientTransform="translate(0.500000,0.000000),scale(0.625000,1.000000),rotate(90.000000),translate(-0.500000,-0.000000)" id="radialGradient-1">
            <stop stop-color="#2D2D2D" offset="0%"></stop>
            <stop stop-color="#141414" offset="100%"></stop>
        </radialGradient>
        <rect id="path-2" x="0" y="0" width="1442" height="900"></rect>
        <radialGradient cx="39.9702962%" cy="0%" fx="39.9702962%" fy="0%" r="98.0945171%" gradientTransform="translate(0.399703,0.000000),scale(0.623928,1.000000),rotate(55.827715),translate(-0.399703,-0.000000)" id="radialGradient-4">
            <stop stop-color="#00FFAA" stop-opacity="0.2" offset="0%"></stop>
            <stop stop-color="#1F2326" offset="100%"></stop>
        </radialGradient>
        <filter x="-9.4%" y="-8.5%" width="118.9%" height="117.0%" filterUnits="objectBoundingBox" id="filter-5">
            <feGaussianBlur stdDeviation="50" in="SourceGraphic"></feGaussianBlur>
        </filter>
        <filter x="-10.4%" y="-9.4%" width="120.8%" height="118.8%" filterUnits="objectBoundingBox" id="filter-6">
            <feGaussianBlur stdDeviation="50" in="SourceGraphic"></feGaussianBlur>
        </filter>
        <filter x="-12.7%" y="-15.9%" width="125.4%" height="131.9%" filterUnits="objectBoundingBox" id="filter-7">
            <feGaussianBlur stdDeviation="49.6283318" in="SourceGraphic"></feGaussianBlur>
        </filter>
        <filter x="-16.1%" y="-16.0%" width="132.3%" height="132.1%" filterUnits="objectBoundingBox" id="filter-8">
            <feGaussianBlur stdDeviation="40" in="SourceGraphic"></feGaussianBlur>
        </filter>
        <filter x="-14.4%" y="-30.1%" width="128.7%" height="160.2%" filterUnits="objectBoundingBox" id="filter-9">
            <feGaussianBlur stdDeviation="35" in="SourceGraphic"></feGaussianBlur>
        </filter>
        <filter x="-20.7%" y="-14.9%" width="141.5%" height="129.8%" filterUnits="objectBoundingBox" id="filter-10">
            <feGaussianBlur stdDeviation="50" in="SourceGraphic"></feGaussianBlur>
        </filter>
    </defs>
    <g id="Page-1" stroke="none" stroke-width="1" fill="none" fill-rule="evenodd">
        <g id="Artboard">
            <g id="Background">
                <g id="Group-2">
                    <rect id="Rectangle" fill="url(#radialGradient-1)" x="0" y="0" width="1440" height="900"></rect>
                    <g id="Group-Copy-2" opacity="0.400000006">
                        <mask id="mask-3" fill="white">
                            <use xlink:href="#path-2"></use>
                        </mask>
                        <g id="Mask"></g>
                        <g id="Group" mask="url(#mask-3)">
                            <g transform="translate(-638.000000, -688.000000)">
                                <rect id="Rectangle-5-Copy-12" fill="url(#radialGradient-4)" opacity="0.400000006" x="638.470786" y="688.229669" width="1442.25655" height="899.864458"></rect>
                                <ellipse id="Oval-3" fill-opacity="0.5" fill="#1F2326" filter="url(#filter-5)" cx="811.992277" cy="880.700678" rx="793.992277" ry="880.700678"></ellipse>
                                <ellipse id="Oval-7" fill-opacity="0.5" fill="#1F2326" filter="url(#filter-6)" cx="1289.73976" cy="959.022214" rx="719.877099" ry="798.491707"></ellipse>
                                <path d="M886.881783,1995.8106 C1119.61973,1995.8106 1308.29112,1786.53524 1308.29112,1528.38101 C1308.29112,1270.22677 1119.61973,1060.95142 886.881783,1060.95142 C654.143834,1060.95142 -223.052239,1873.14954 300.023762,1784.36046 C823.099763,1695.57138 654.143834,1995.8106 886.881783,1995.8106 Z" id="Oval-3-Copy" fill-opacity="0.300000012" fill="" filter="url(#filter-7)" transform="translate(722.302104, 1528.381009) rotate(-157.000000) translate(-722.302104, -1528.381009) "></path>
                                <path d="M1358.23041,1600.06133 C1390.46545,1577.04477 949.575656,1532.96556 888.735396,1422.88464 C827.895135,1312.80371 1150.78914,909.817413 1083.69472,958.130421 C785.331423,1172.97436 615.988344,1338.40517 615.988344,1490.04249 C615.988344,1837.49855 1260.82487,1669.6111 1358.23041,1600.06133 Z" id="Oval-2" fill-opacity="0.25" fill="#00F3FF" opacity="0.800000012" filter="url(#filter-8)"></path>
                                <path d="M1405.54339,1633.43886 C1589.83368,1623.27112 1615.44993,1442.47153 1589.83368,1389.78415 C1564.21743,1337.09678 1611.74101,1509.65837 1349.10548,1509.65837 C1086.46995,1509.65837 789.092566,1189.99003 885.994178,1314.45045 C982.89579,1438.91087 1100.71676,1650.25688 1405.54339,1633.43886 Z" id="Oval-8" fill-opacity="0.199999988" fill="#00F3FF" opacity="0.100000001" filter="url(#filter-9)" transform="translate(1232.723493, 1460.033335) scale(-1, 1) translate(-1232.723493, -1460.033335) "></path>
                                <path d="M1551.75322,1451.12257 C1973.24075,1321.12527 2311.44378,1103.54472 2245.72768,724.591379 C2180.01158,345.638042 2094.30659,464.92997 1934.99933,464.92997 C1775.69207,464.92997 1826.54731,611.339283 1919.70587,737.812044 C2145.56902,1044.44554 1397.76815,1498.61542 1551.75322,1451.12257 Z" id="Oval-9" fill-opacity="0.2" fill="#00FFAA" opacity="0.200000003" filter="url(#filter-10)"></path>
                            </g>
                        </g>
                    </g>
                </g>
            </g>
        </g>
    </g>
</svg>